# xmcd
# 
# Track frame offsets:
#     150
#     22812
#     71869
#     88458
#     119519
#     136609
#     154173
#     174954
#     186727
#     200045
# 
# Disc length: 3049
# 
# Revision: 0
# Processed by: cddbd v1.5.2PL0 Copyright (c) Steve Scherf et al.
# Submitted via: BonkEnc v1.0.15
# 
DISCID=910be70a
DTITLE=Charlie Parker - Happy Birrd Blues
DYEAR=2000
DGENRE=Jazz
TTITLE0=Confirmation
TTITLE1=Indiana
TTITLE2=Get happy
TTITLE3=Now's the time
TTITLE4=Embraceable you
TTITLE5=Dizzy atmosphere
TTITLE6=Big foot
TTITLE7=Bongo bop
TTITLE8=Happy bird blues
TTITLE9=Round about midnight
EXTD=
EXTT0=
EXTT1=
EXTT2=
EXTT3=
EXTT4=
EXTT5=
EXTT6=
EXTT7=
EXTT8=
EXTT9=
PLAYORDER=
